# xmcd CD database file
#
# Track frame offsets:
#	150
#	23938
#	49812
#	74646
#	93272
#	118388
#	140262
#	159505
#	178600
#	196807
#	219381
#	237841
#	250705
#	276652
#	296939
#	314220
#
# Disc length: 4643 seconds
#
# Revision: 1
# Processed by: cddbd v1.5.2PL0 Copyright (c) Steve Scherf et al.
# Submitted via: CDex 1.51
#
DISCID=00122110
DTITLE=Chris Botti - Chris Botti-Live&Italia
DYEAR=2011
DGENRE=Jazz
TTITLE0=Chris Botti-Live - The Look Of Love
TTITLE1=Chris Botti-Live - What Are You Doing The Rest Of Your Life?
TTITLE2=Chris Botti-Live - Good Morning Heartache
TTITLE3=Chris Botti-Live - Are You Lonesome Tonight?
TTITLE4=Chris Botti-Italia - Deborah's Theme (From "Once Upon a Time in America)
TTITLE5=Chris Botti-Italia - The Very Thought Of You (Featuring Paula Cole)
TTITLE6=Chris Botti-Italia - The Way You Look Tonight
TTITLE7=Chris Botti-Live - Someone To Watch Over Me
TTITLE8=Chris Botti-Live - My One And Only Love
TTITLE9=Chris Botti-Live - Cinema Paradiso
TTITLE10=Chris Botti-Italia - Italia (Featuring Andrea Bocelli)
TTITLE11=Chris Botti-Italia - Venice
TTITLE12=Chris Botti-Italia - Ave Maria
TTITLE13=Chris Botti-Italia - Estate
TTITLE14=Chris Botti-Italia - Turandot/Nessun Dorma
TTITLE15=Chris Botti-Live - When I Fall In Love
EXTD=YEAR: 2011
EXTT0=
EXTT1=
EXTT2=
EXTT3=
EXTT4=
EXTT5=
EXTT6=
EXTT7=
EXTT8=
EXTT9=
EXTT10=
EXTT11=
EXTT12=
EXTT13=
EXTT14=
EXTT15=
PLAYORDER=
